<?xml version="1.0" standalone="no"?>
<!DOCTYPE svg PUBLIC "-//W3C//DTD SVG 20010904//EN"
 "http://www.w3.org/TR/2001/REC-SVG-20010904/DTD/svg10.dtd">
<svg version="1.0" xmlns="http://www.w3.org/2000/svg"
 width="192.000000pt" height="192.000000pt" viewBox="0 0 192.000000 192.000000"
 preserveAspectRatio="xMidYMid meet">
<metadata>
Created by potrace 1.11, written by Peter Selinger 2001-2013
</metadata>
<g transform="translate(0.000000,192.000000) scale(0.100000,-0.100000)"
fill="#000000" stroke="none">
<path d="M243 1863 c16 -18 16 -22 2 -33 -8 -7 -15 -9 -15 -5 0 4 -6 2 -13 -4
-8 -6 -16 -9 -19 -6 -2 3 -5 -2 -5 -10 0 -8 4 -15 9 -15 4 0 8 5 8 12 0 6 3 8
7 4 11 -10 -38 -45 -54 -39 -17 7 -17 -14 0 -21 6 -3 0 -3 -15 -1 -31 4 -37
-2 -40 -37 -1 -14 -8 -25 -15 -25 -9 0 -9 5 -2 20 6 10 9 21 6 23 -2 3 -10 -9
-17 -26 -11 -26 -15 -28 -29 -18 -13 9 -12 8 1 -7 17 -18 17 -20 -5 -44 -12
-13 -16 -21 -8 -16 10 5 12 4 7 -3 -5 -9 -13 -9 -27 -2 -13 7 -19 7 -19 0 0
-5 6 -10 13 -10 9 0 9 -2 0 -8 -10 -6 -12 -131 -9 -552 2 -300 5 -555 7 -567
4 -30 18 -19 14 12 -1 16 3 25 11 25 8 0 14 6 14 13 0 6 5 4 11 -6 5 -9 8 -21
4 -26 -3 -5 0 -13 6 -17 7 -4 9 -3 6 3 -4 6 0 16 7 22 10 8 16 9 21 1 3 -5 1
-10 -4 -10 -6 0 -11 -5 -11 -12 0 -6 3 -8 7 -5 3 4 13 1 22 -6 14 -10 14 -10
3 5 -18 22 8 31 26 9 12 -14 12 -13 3 4 -5 11 -17 20 -27 20 -9 0 -18 6 -20
13 -1 7 0 8 3 2 2 -5 9 -10 14 -10 6 0 7 5 4 10 -3 6 -1 10 4 10 6 0 11 -5 11
-11 0 -6 6 -9 14 -6 8 3 17 3 21 -1 9 -9 64 -9 59 0 -7 11 10 10 24 -2 9 -7 9
-7 2 3 -11 12 -62 19 -55 7 2 -4 -2 -7 -10 -7 -8 0 -15 4 -15 9 0 8 15 12 33
9 4 -1 17 4 29 10 11 6 18 7 14 1 -5 -9 12 -17 52 -27 8 -2 22 5 32 15 17 17
18 17 29 -7 6 -13 9 -28 6 -32 -2 -5 7 -7 20 -5 14 1 27 -2 31 -7 3 -5 15 -14
27 -19 20 -10 21 -10 4 3 -11 9 -14 18 -8 21 5 4 12 2 16 -4 9 -15 35 -12 35
4 0 21 20 30 33 17 9 -9 7 -10 -8 -5 -21 8 -21 6 9 -16 11 -8 17 -10 14 -5 -4
6 0 21 8 35 15 25 15 25 9 -10 l-5 -35 13 30 c8 17 12 33 10 37 -6 12 31 -4
39 -16 5 -7 8 -7 8 2 0 6 7 12 15 12 8 0 15 -6 15 -12 0 -9 3 -8 10 2 5 8 18
16 30 16 37 3 43 4 38 9 -9 9 -49 15 -44 6 3 -4 -1 -8 -9 -8 -11 0 -12 4 -4
14 6 7 15 10 20 7 5 -3 9 -1 9 5 0 6 6 8 14 5 8 -3 17 0 21 5 3 6 11 8 17 5 6
-4 5 3 -2 16 -10 19 -9 25 6 39 17 15 17 15 4 -2 -11 -16 -11 -20 5 -35 17
-16 18 -16 6 0 -10 14 -9 18 6 26 10 5 23 8 28 6 6 -3 11 5 12 17 2 17 -1 19
-10 10 -6 -6 -16 -11 -21 -11 -6 0 0 7 12 16 12 8 27 12 33 8 7 -4 10 -1 7 7
-3 8 -10 13 -15 12 -5 -1 -10 8 -10 19 -2 20 -1 20 13 2 15 -18 15 -18 11 4
-3 14 -1 20 6 15 6 -4 8 0 4 10 -4 11 -2 14 9 10 11 -4 12 -9 5 -16 -6 -6 -11
-16 -11 -22 0 -5 6 -1 13 10 11 18 17 59 18 110 0 19 1 19 10 2 7 -13 7 -22
-1 -32 -8 -10 -8 -13 2 -11 7 1 14 5 15 10 1 5 7 13 15 17 10 7 8 9 -6 9 -11
0 -16 3 -13 7 4 3 0 14 -8 23 -13 14 -13 17 0 17 8 0 12 -4 10 -8 -3 -4 1 -9
9 -12 10 -4 12 0 9 14 -3 10 0 19 6 19 6 0 11 5 11 12 0 6 -3 8 -7 5 -3 -4
-13 -1 -22 6 -14 11 -14 10 -2 -5 9 -12 10 -18 2 -18 -10 0 -14 11 -8 27 1 5
5 7 9 6 17 -6 15 28 -2 37 -11 6 -20 16 -19 23 0 9 2 9 6 0 6 -16 30 -17 39
-1 5 7 2 9 -8 5 -12 -4 -18 2 -24 21 -4 15 -7 30 -6 35 1 4 -3 7 -10 7 -6 0
-3 6 7 14 11 8 24 12 29 9 5 -4 6 -1 2 6 -4 6 -12 9 -17 6 -5 -4 -9 1 -9 9 0
9 -5 16 -10 16 -7 0 -7 -6 -1 -18 7 -14 6 -19 -4 -19 -7 0 -11 6 -8 14 3 7 -1
13 -8 13 -9 0 -10 3 -4 8 14 10 17 32 5 32 -5 0 -14 -8 -20 -17 -10 -16 -11
-16 -6 -1 3 9 0 19 -7 21 -7 2 -4 3 6 2 9 -2 17 1 17 6 0 4 6 7 13 5 6 -1 9
-1 4 1 -4 3 -4 10 0 16 4 7 -1 6 -10 -2 -13 -10 -20 -11 -30 -2 -8 6 -18 7
-23 3 -4 -4 -3 0 4 9 7 9 10 24 6 33 -4 10 -1 16 7 16 7 0 9 3 6 6 -4 4 -13 1
-22 -6 -15 -13 -20 -5 -16 28 1 6 -5 12 -13 12 -10 0 -13 -6 -10 -17 5 -14 4
-15 -4 -4 -6 8 -8 20 -5 28 3 7 -2 13 -11 13 -10 0 -14 -6 -10 -17 3 -10 -3
-6 -12 10 -10 15 -24 27 -31 27 -19 0 -16 17 5 29 16 10 15 11 -3 12 -11 1
-26 1 -32 0 -11 -2 -17 10 -15 30 1 3 -5 6 -13 6 -8 0 -12 -4 -9 -9 3 -4 0 -8
-6 -8 -6 0 -8 -5 -4 -12 4 -6 3 -8 -4 -4 -6 3 -9 15 -7 26 2 11 -1 23 -7 26
-7 4 -8 2 -4 -4 4 -7 3 -12 -3 -12 -6 0 -8 -6 -5 -14 3 -8 0 -17 -7 -22 -7 -4
-10 -3 -6 3 4 6 -2 21 -13 33 -11 13 -20 19 -20 14 0 -6 5 -15 11 -21 8 -8 8
-13 0 -18 -7 -4 -10 -1 -9 7 2 7 -2 12 -9 11 -8 -2 -10 4 -7 15 4 13 4 14 -4
4 -5 -8 -13 -14 -17 -14 -4 0 -12 6 -17 14 -8 10 -9 10 -5 -2 2 -8 10 -14 16
-12 6 1 11 -2 11 -8 0 -13 -17 -13 -25 0 -5 8 -11 8 -19 1 -9 -8 -13 -7 -13 4
0 8 4 12 9 9 4 -3 8 -1 8 4 0 6 -7 12 -15 16 -9 3 -12 12 -9 23 5 15 4 15 -4
3 -8 -10 -8 -18 0 -27 7 -8 7 -13 0 -13 -5 0 -15 7 -22 15 -7 8 -17 15 -23 15
-5 0 2 -9 17 -21 14 -11 26 -26 25 -32 0 -8 -2 -8 -6 1 -2 6 -11 12 -18 12 -7
0 -15 3 -18 8 -2 4 -2 2 -1 -5 2 -7 -2 -15 -8 -19 -7 -4 -8 -3 -4 4 4 7 2 12
-3 12 -6 0 -11 6 -11 14 0 8 -4 18 -10 21 -7 4 -7 -3 0 -19 6 -17 6 -26 0 -26
-6 0 -10 5 -10 12 0 6 -7 3 -16 -8 -14 -18 -15 -18 -9 6 4 17 3 21 -3 11 -6
-8 -15 -10 -23 -5 -11 6 -11 4 0 -10 10 -12 11 -20 4 -27 -8 -8 -13 -7 -18 2
-6 8 -4 10 5 4 9 -6 11 -4 5 5 -6 10 -11 9 -23 -6 -13 -17 -14 -17 -9 -1 5 14
2 16 -17 13 -20 -4 -23 -1 -18 16 3 14 1 19 -6 14 -6 -3 -14 -1 -18 5 -4 8 -3
9 4 5 16 -10 15 6 0 24 -7 8 -3 6 10 -4 12 -11 25 -16 29 -13 3 4 1 7 -5 7 -7
0 -12 5 -12 11 0 5 4 7 10 4 6 -3 7 1 3 10 -4 12 -8 13 -13 5 -5 -9 -9 -9 -14
-1 -4 6 -2 11 3 11 13 0 10 22 -4 33 -5 4 1 7 15 5 17 -2 25 2 25 12 0 8 7 15
15 15 9 0 14 8 12 19 -2 13 1 16 10 10 10 -6 11 -5 1 8 -15 17 -7 29 13 21 8
-3 11 -10 7 -17 -3 -6 -2 -7 3 -3 5 5 9 14 9 20 1 7 7 11 14 9 7 -1 10 2 6 8
-5 8 -11 7 -21 -1 -10 -8 -14 -8 -14 0 0 11 15 16 35 11 38 -8 45 -8 50 1 4 5
10 7 15 4 5 -3 12 0 16 6 4 8 3 9 -4 5 -8 -5 -10 -1 -5 10 5 15 7 15 15 0 14
-25 30 -19 17 7 -11 20 -11 21 4 9 17 -14 37 -9 37 9 0 6 -10 19 -22 30 -21
18 -20 18 14 -1 22 -13 39 -17 42 -11 4 5 15 8 26 6 12 -2 18 0 15 6 -4 5 -10
7 -15 4 -5 -3 -12 -1 -15 5 -5 8 -11 7 -21 -1 -8 -6 -14 -10 -15 -8 0 2 -2 15
-3 28 -3 22 -2 23 11 6 11 -17 17 -14 14 7 0 4 8 5 19 3 11 -2 23 1 26 7 5 7
2 8 -6 3 -10 -6 -12 -4 -7 8 4 10 -1 21 -11 27 -15 9 -14 10 5 5 12 -3 25 -1
29 6 4 7 3 10 -2 6 -5 -3 -17 1 -27 8 -16 11 -16 13 -2 19 9 3 13 2 10 -4 -3
-6 -2 -10 4 -10 5 0 9 9 8 20 -1 15 -6 19 -22 14 -16 -4 -17 -3 -5 5 8 6 11
11 5 12 -36 5 -265 3 -265 -2 0 -9 -43 -5 -60 6 -10 6 -9 2 3 -12z m58 -25 c7
-12 3 -15 -17 -12 -21 2 -24 -1 -20 -19 3 -12 3 -16 0 -9 -3 6 -10 12 -15 12
-6 0 -8 -4 -4 -9 3 -5 0 -13 -7 -17 -7 -4 -10 -4 -6 1 4 4 2 15 -4 24 -7 9 -8
13 -3 8 10 -8 47 22 40 33 -3 5 2 7 11 6 9 -1 20 -9 25 -18z m266 -64 c-3 -3
-12 -4 -19 -1 -8 3 -5 6 6 6 11 1 17 -2 13 -5z m-480 -123 c0 -11 -5 -17 -9
-15 -4 3 -8 0 -8 -5 0 -6 -5 -11 -12 -11 -6 0 -4 7 5 18 10 10 14 22 10 25 -3
4 -1 7 5 7 6 0 10 -9 9 -19z m326 -17 c3 -12 -32 -13 -40 -2 -3 7 -1 8 6 4 6
-4 14 0 18 10 6 16 10 13 16 -12z m-350 -39 c-3 -9 -8 -14 -10 -11 -3 3 -2 9
2 15 9 16 15 13 8 -4z m227 -15 c0 -5 -5 -10 -11 -10 -5 0 -7 5 -4 10 3 6 8
10 11 10 2 0 4 -4 4 -10z m6 -32 c4 -7 4 -10 -1 -6 -11 11 -36 -12 -28 -26 3
-6 2 -7 -2 -3 -12 10 -15 38 -4 31 5 -3 9 0 9 5 0 15 17 14 26 -1z m398 -213
c-4 -8 -11 -12 -16 -9 -6 4 -5 10 3 15 19 12 19 11 13 -6z m-233 -148 c-10 -9
-11 -8 -5 6 3 10 9 15 12 12 3 -3 0 -11 -7 -18z m27 -12 c0 -20 -4 -24 -18
-20 -10 3 -21 2 -23 -3 -5 -7 12 -8 62 -3 9 1 10 5 5 14 -5 7 -2 5 8 -5 19
-20 29 -23 26 -7 -2 6 4 14 12 16 9 3 11 1 5 -4 -16 -13 -16 -33 1 -33 8 0 12
5 9 10 -3 6 -1 10 4 10 18 0 12 -17 -11 -34 -19 -13 -19 -15 -3 -8 11 5 26 7
34 4 9 -3 11 0 6 8 -5 9 -4 11 4 6 9 -6 9 -11 -1 -24 -12 -13 -10 -14 9 -4 33
18 38 14 12 -8 -13 -10 -22 -20 -19 -20 38 -9 41 -8 29 6 -8 10 -8 14 0 14 6
0 11 -5 11 -11 0 -5 6 -7 13 -4 6 4 1 -3 -13 -16 l-25 -22 25 8 c20 6 23 5 13
-6 -18 -19 -16 -34 2 -19 9 7 18 10 22 6 3 -3 1 -6 -5 -6 -17 0 -15 -46 4 -64
9 -9 11 -16 4 -16 -6 0 -8 -5 -4 -12 5 -9 2 -9 -9 1 -19 15 -19 15 -22 -16 -1
-12 1 -20 6 -17 4 2 5 12 2 21 -6 15 -5 16 9 3 11 -10 12 -17 5 -22 -6 -4 -8
-10 -4 -14 4 -4 2 -13 -4 -21 -10 -11 -15 -11 -28 -1 -14 11 -14 11 -4 -3 7
-9 9 -20 5 -24 -4 -5 -2 -6 3 -2 6 3 17 1 25 -4 13 -9 13 -10 0 -8 -8 1 -26
-2 -40 -8 l-25 -10 23 -7 c12 -4 22 -12 22 -19 0 -8 -3 -8 -12 1 -15 15 -54
16 -63 2 -4 -6 -11 -8 -16 -5 -5 4 -9 1 -9 -4 0 -14 6 -14 33 1 20 10 21 10 8
-5 -7 -10 -20 -17 -28 -17 -8 0 -12 -4 -9 -8 2 -4 1 -14 -3 -21 -6 -10 -10 -9
-14 4 -4 9 -3 14 2 11 5 -4 7 4 3 16 l-5 22 -9 -23 c-5 -14 -12 -19 -20 -15
-8 5 -9 2 -5 -9 3 -9 1 -19 -5 -23 -7 -4 -8 -3 -4 4 4 7 3 12 -3 12 -5 0 -13
-5 -17 -12 -5 -8 -11 -6 -20 6 -7 10 -17 15 -23 12 -6 -4 -8 2 -6 15 3 17 2
19 -10 9 -8 -6 -12 -17 -9 -24 3 -7 -2 -13 -10 -13 -8 0 -13 4 -10 8 6 10 -18
49 -30 49 -5 0 -2 -8 7 -18 15 -17 15 -18 -7 -18 -18 0 -23 5 -21 18 2 11 -2
18 -11 18 -8 0 -14 5 -14 10 0 14 13 13 28 -2 9 -9 12 -9 12 0 0 7 -5 12 -11
12 -5 0 -7 4 -4 10 3 5 0 7 -8 4 -8 -3 -17 2 -21 11 -3 9 -11 13 -17 10 -17
-11 -59 -13 -53 -3 3 5 12 7 20 4 8 -3 14 1 14 9 0 8 -9 15 -20 15 l-20 0 20
20 c11 11 20 26 20 33 0 8 -3 7 -10 -3 -16 -25 -25 0 -25 70 0 61 1 67 17 59
28 -15 32 -10 8 11 -25 22 -20 26 13 9 22 -10 22 -10 0 10 -25 21 -32 41 -9
22 10 -9 16 -9 21 -1 4 6 13 9 20 6 8 -3 19 3 27 12 7 9 8 13 2 9 -7 -4 -14 0
-17 8 -5 11 -1 12 18 5 20 -8 23 -6 19 8 -5 14 -3 13 10 -2 18 -22 21 -14 6
14 -7 13 -7 21 2 26 7 4 8 3 4 -4 -10 -17 10 -15 28 3 17 17 30 20 20 4 -10
-17 39 0 51 17 13 18 13 18 13 -11z m-153 -35 c3 -6 -1 -7 -9 -4 -18 7 -21 14
-7 14 6 0 13 -4 16 -10z m-32 -27 c14 -17 14 -18 -9 -19 -13 -1 -24 2 -24 8 0
5 5 6 12 2 8 -5 9 -2 5 9 -8 22 -4 21 16 0z m624 -169 c-3 -3 -12 -4 -19 -1
-8 3 -5 6 6 6 11 1 17 -2 13 -5z m-624 -137 c3 -8 1 -20 -5 -28 -8 -11 -9 -10
-4 4 3 9 1 17 -4 17 -6 0 -10 -5 -10 -12 0 -6 -3 -8 -6 -5 -4 4 -1 13 6 22 15
18 17 18 23 2z m571 -33 c3 -8 2 -12 -4 -9 -6 3 -10 10 -10 16 0 14 7 11 14
-7z m-130 -185 c-3 -5 -10 -7 -15 -3 -5 3 -7 10 -3 15 3 5 10 7 15 3 5 -3 7
-10 3 -15z m-78 -39 c0 -12 -4 -16 -9 -11 -5 5 -6 14 -3 20 10 15 12 14 12 -9z
m-378 -2 c-2 -8 6 -13 19 -12 13 1 20 -2 18 -6 -3 -5 -11 -7 -18 -6 -21 3 -38
17 -32 27 9 13 15 11 13 -3z m-123 -8 c3 -5 1 -10 -4 -10 -6 0 -11 5 -11 10 0
6 2 10 4 10 3 0 8 -4 11 -10z m-75 -21 c0 -5 -4 -9 -8 -9 -5 0 -9 7 -9 15 0 8
4 12 9 9 4 -3 8 -9 8 -15z m331 8 c-6 -8 -8 -17 -4 -20 3 -4 12 1 20 11 12 16
13 16 7 -1 -5 -13 -2 -16 10 -11 9 3 16 1 16 -6 0 -6 5 -8 10 -5 6 3 10 1 10
-4 0 -14 -17 -14 -25 -1 -5 8 -11 8 -20 0 -9 -8 -15 -8 -20 0 -3 6 -10 8 -15
5 -5 -3 -14 3 -20 14 -8 17 -8 19 4 15 8 -3 17 -1 21 5 3 6 9 11 12 11 3 0 0
-6 -6 -13z m74 -15 c-3 -3 -11 0 -18 7 -9 10 -8 11 6 5 10 -3 15 -9 12 -12z
m55 8 c0 -5 -2 -10 -4 -10 -3 0 -8 5 -11 10 -3 6 -1 10 4 10 6 0 11 -4 11 -10z"/>
<path d="M403 1153 c-7 -3 -13 -9 -13 -14 0 -6 4 -8 9 -4 5 3 11 -3 13 -12 3
-15 5 -14 10 4 7 25 0 33 -19 26z"/>
<path d="M515 1120 c-3 -6 1 -7 9 -4 18 7 21 14 7 14 -6 0 -13 -4 -16 -10z"/>
<path d="M243 1004 c0 -7 6 -15 12 -18 6 -2 12 2 12 10 0 7 -6 15 -12 18 -6 2
-12 -2 -12 -10z"/>
<path d="M650 961 c0 -5 7 -11 14 -14 10 -4 13 -1 9 9 -6 15 -23 19 -23 5z"/>
<path d="M249 948 c-5 -19 -8 -50 -4 -46 7 7 15 48 9 48 -2 0 -4 -1 -5 -2z"/>
<path d="M270 871 c0 -6 4 -13 10 -16 6 -3 7 1 4 9 -7 18 -14 21 -14 7z"/>
<path d="M585 820 c-3 -6 1 -7 9 -4 18 7 21 14 7 14 -6 0 -13 -4 -16 -10z"/>
<path d="M480 741 c0 -7 -4 -10 -8 -7 -5 3 -9 -2 -9 -10 0 -13 2 -13 16 0 8 9
12 19 8 22 -4 4 -7 2 -7 -5z"/>
<path d="M163 1795 c-10 -10 -9 -14 2 -19 17 -6 26 5 17 21 -5 8 -11 7 -19 -2z"/>
<path d="M118 1773 c7 -3 16 -2 19 1 4 3 -2 6 -13 5 -11 0 -14 -3 -6 -6z"/>
<path d="M555 1730 c-3 -5 -1 -10 4 -10 6 0 11 5 11 10 0 6 -2 10 -4 10 -3 0
-8 -4 -11 -10z"/>
<path d="M1747 1439 c7 -7 15 -10 18 -7 3 3 -2 9 -12 12 -14 6 -15 5 -6 -5z"/>
<path d="M515 1420 c3 -5 8 -10 11 -10 2 0 4 5 4 10 0 6 -5 10 -11 10 -5 0 -7
-4 -4 -10z"/>
<path d="M1415 1420 c3 -5 8 -10 11 -10 2 0 4 5 4 10 0 6 -5 10 -11 10 -5 0
-7 -4 -4 -10z"/>
<path d="M1466 1419 c2 -4 -5 -10 -16 -14 -12 -4 -17 -11 -13 -18 3 -7 -3 -4
-14 6 -22 19 -33 22 -33 6 0 -5 4 -8 9 -5 5 3 12 -1 15 -9 4 -12 2 -13 -13 -6
-10 6 -21 7 -25 3 -4 -3 -4 2 0 12 6 16 4 17 -13 8 -11 -6 -24 -8 -28 -4 -5 4
-5 1 -1 -6 4 -7 12 -9 18 -6 7 4 8 2 4 -5 -6 -9 -14 -8 -32 3 -20 14 -23 14
-18 1 4 -8 1 -16 -5 -16 -32 -4 -36 -6 -33 -18 1 -7 -2 -10 -8 -6 -6 3 -8 11
-5 16 4 5 1 9 -4 9 -10 0 -15 -12 -13 -30 0 -3 -9 -7 -21 -7 -20 -2 -21 -1 -4
11 17 13 25 32 8 22 -5 -4 -12 0 -14 6 -4 10 -6 10 -6 0 -1 -7 -5 -11 -10 -7
-5 3 -13 1 -16 -5 -4 -6 -1 -9 6 -8 6 2 12 -7 14 -19 2 -23 -15 -27 -43 -9 -8
5 -12 3 -10 -6 2 -7 -3 -12 -10 -10 -8 1 -16 -7 -19 -18 -3 -11 -10 -17 -17
-13 -6 4 -2 -6 8 -22 l19 -30 -28 25 c-28 25 -28 25 -12 1 18 -26 13 -53 -9
-44 -8 3 -11 9 -8 14 3 5 10 6 16 3 7 -4 8 -2 4 5 -12 18 -35 -5 -29 -29 3
-12 11 -17 21 -13 12 4 11 1 -3 -10 -11 -9 -26 -17 -34 -17 -8 0 -11 -7 -8
-20 3 -11 1 -23 -4 -26 -5 -3 -7 -9 -4 -14 3 -5 1 -11 -4 -14 -5 -4 -13 -1
-17 5 -4 7 -3 10 2 6 5 -3 10 8 10 23 1 23 -1 26 -11 17 -9 -9 -10 -14 -1 -19
11 -8 1 -12 -18 -9 -5 1 -4 -4 2 -12 7 -8 9 -17 5 -20 -6 -7 13 -11 31 -8 5 1
4 -4 -2 -12 -7 -8 -8 -18 -4 -22 4 -5 1 -5 -6 -1 -7 4 -10 11 -8 15 3 4 -2 8
-10 8 -10 0 -11 -4 -4 -11 13 -13 13 -29 0 -21 -5 3 -10 1 -10 -4 0 -6 10 -11
23 -11 17 0 19 -2 7 -9 -8 -6 -18 -7 -24 -4 -5 3 -6 1 -2 -5 4 -7 2 -12 -5
-12 -7 0 -10 -3 -7 -6 4 -3 16 0 28 6 22 12 22 12 4 -13 -11 -14 -23 -23 -29
-20 -5 2 1 -5 14 -16 17 -16 19 -21 8 -21 -9 0 -19 -5 -23 -11 -4 -8 1 -9 17
-4 13 4 21 4 16 0 -4 -5 1 -17 10 -28 18 -20 18 -20 -10 -2 -24 15 -27 16 -21
1 3 -9 10 -16 15 -16 4 0 5 -7 2 -17 -4 -11 -3 -14 6 -9 7 5 10 2 9 -6 -2 -7
3 -12 11 -10 11 3 12 0 2 -11 -9 -12 -7 -19 15 -34 l27 -20 -24 2 c-13 1 -23
8 -21 14 1 6 -2 11 -8 11 -24 0 -8 -31 19 -36 20 -4 33 -15 42 -36 9 -22 14
-26 21 -16 8 10 9 10 5 -2 -2 -8 -13 -14 -23 -13 -16 2 -15 1 4 -9 12 -6 22
-15 22 -20 0 -5 -10 -4 -22 2 -21 10 -22 10 -5 -4 11 -8 26 -12 35 -9 10 4 13
2 8 -5 -5 -8 -1 -10 10 -5 11 4 15 3 11 -4 -6 -9 43 -35 55 -30 2 1 -4 -5 -13
-14 -16 -14 -15 -16 5 -29 19 -12 20 -12 7 3 -7 10 -10 17 -5 18 5 0 17 2 27
4 9 2 15 -1 11 -6 -3 -5 -10 -7 -15 -4 -5 3 -6 -1 -3 -9 3 -9 11 -14 17 -13 7
1 11 -4 9 -12 -2 -11 3 -10 23 3 25 17 30 12 26 -23 -2 -7 3 -10 9 -6 6 4 9
14 6 22 -4 9 -2 11 6 7 8 -5 9 -2 5 10 -4 11 -3 15 4 10 6 -3 8 -18 5 -33 -5
-17 -4 -21 2 -12 8 11 10 11 15 0 4 -10 6 -10 6 -1 1 6 8 12 17 12 8 0 13 4
10 8 -2 4 4 8 15 9 16 2 15 -2 -9 -24 l-27 -25 28 16 28 17 -6 -28 c-4 -19 -3
-22 3 -10 10 23 24 24 32 1 6 -16 7 -16 12 3 4 17 2 21 -12 18 -18 -3 -22 17
-6 32 4 4 7 4 6 -2 -5 -21 1 -29 10 -15 6 9 10 11 10 3 0 -15 27 -7 53 15 12
10 17 11 17 3 0 -7 4 -10 9 -6 5 3 12 1 15 -3 3 -5 -6 -9 -21 -8 -15 1 -28 -5
-31 -14 -5 -13 -3 -13 13 0 21 18 26 16 43 -13 13 -22 13 -22 6 2 -4 17 -3 21
6 16 9 -6 9 -3 1 13 -8 15 -8 23 1 28 6 4 8 3 4 -4 -3 -5 0 -12 6 -15 18 -6
49 4 43 13 -3 5 -1 11 4 15 6 3 8 -5 5 -18 -2 -16 1 -24 10 -24 8 0 12 6 9 14
-3 7 1 13 8 13 7 0 9 -3 6 -7 -4 -3 -1 -13 6 -21 8 -10 8 -13 1 -9 -7 4 -15 0
-18 -9 -8 -21 -8 -24 5 -24 5 0 7 5 3 12 -4 7 -3 8 4 4 6 -4 8 -14 5 -23 -5
-12 -3 -14 7 -8 9 5 11 4 6 -4 -6 -8 -12 -9 -20 -2 -9 8 -12 6 -11 -9 1 -11 5
-23 10 -27 4 -5 5 -3 2 3 -3 6 0 11 8 11 11 0 11 -4 0 -21 -7 -12 -11 -29 -10
-38 2 -10 0 -17 -3 -17 -21 3 -33 -3 -30 -14 2 -7 -1 -13 -5 -14 -4 -1 -14 -8
-22 -15 -46 -41 -49 -43 -42 -25 3 9 2 17 -3 17 -9 0 -14 -20 -12 -41 1 -3 -6
-6 -13 -6 -11 0 -12 4 -4 14 8 9 8 13 0 13 -20 0 -26 -4 -23 -16 2 -8 -5 -10
-20 -6 -12 3 -17 7 -10 10 7 2 10 8 6 13 -3 5 -12 2 -20 -6 -9 -8 -20 -12 -26
-9 -7 4 -8 2 -4 -4 4 -6 13 -9 21 -5 8 3 15 0 15 -7 0 -6 4 -9 8 -6 4 2 8 -4
8 -15 0 -19 -1 -19 -16 1 -14 18 -18 19 -28 7 -7 -7 -8 -18 -4 -22 4 -5 2 -5
-5 -1 -6 3 -16 -1 -21 -10 -8 -14 -10 -14 -25 0 -11 12 -17 13 -20 3 -4 -9 -8
-8 -16 3 -7 9 -11 11 -11 3 0 -7 6 -16 13 -20 6 -4 18 -15 24 -24 10 -13 10
-16 -2 -16 -8 0 -12 3 -10 7 2 3 -5 11 -16 18 -11 7 -19 8 -19 2 0 -5 4 -10
10 -10 5 0 9 -3 9 -7 -3 -21 2 -33 13 -27 7 4 8 3 4 -5 -4 -6 -12 -8 -18 -5
-8 5 -9 1 -4 -11 5 -14 4 -16 -7 -6 -11 9 -17 7 -28 -6 -13 -17 -13 -17 5 -3
18 14 19 13 14 -1 -4 -9 -1 -22 5 -29 9 -10 9 -12 -4 -7 -9 3 -16 0 -16 -7 0
-14 6 -15 127 -17 163 -2 220 1 220 10 0 5 -10 7 -22 5 l-23 -5 22 10 c15 7
21 17 18 31 -2 11 0 20 6 20 5 0 7 -11 5 -24 -3 -18 -1 -23 9 -20 8 3 12 15
10 27 -4 21 -4 22 10 3 17 -22 20 -14 6 13 -7 13 -6 18 4 18 8 0 12 -4 9 -9
-3 -4 0 -8 6 -8 6 0 8 -5 4 -12 -4 -7 -3 -8 4 -4 6 4 8 14 5 23 -5 12 -2 15
10 10 11 -4 20 1 27 13 13 23 13 43 1 35 -5 -3 -12 -1 -15 4 -4 5 2 8 11 6 10
-2 22 -4 26 -4 5 -1 5 -7 1 -13 -5 -8 -1 -8 12 2 10 8 20 15 22 16 2 1 -4 4
-13 8 -11 4 -14 2 -9 -6 4 -7 3 -8 -4 -4 -9 5 -9 12 0 26 11 17 13 17 23 3 8
-11 14 -12 19 -5 3 6 2 13 -4 17 -5 3 -10 11 -10 17 0 6 10 3 22 -8 22 -19 23
-19 8 1 -8 11 -19 23 -25 27 -5 4 -1 8 11 8 11 0 25 -5 31 -11 8 -8 13 -7 18
2 5 8 4 10 -4 5 -6 -4 -14 0 -17 8 -3 9 -10 13 -15 10 -5 -3 -6 2 -3 11 5 12
9 13 20 4 8 -6 14 -8 14 -3 0 5 5 2 11 -6 9 -13 10 -12 5 3 -3 9 -2 17 2 17 4
0 9 12 10 27 1 22 0 24 -8 13 -6 -9 -10 -10 -10 -3 0 6 4 14 9 17 5 4 9 228 9
523 0 327 -4 510 -10 500 -5 -9 -18 -17 -29 -17 -13 0 -18 -4 -13 -12 4 -7 3
-8 -5 -4 -9 6 -9 11 -1 21 8 9 6 14 -6 19 -9 3 -20 4 -25 0 -5 -3 -9 1 -9 8 0
10 -2 10 -9 0 -4 -8 -12 -14 -16 -14 -4 0 -12 6 -16 14 -7 10 -9 10 -9 -2 0
-13 -1 -13 -10 0 -8 12 -10 12 -10 1 0 -11 -5 -9 -22 5 -14 12 -18 13 -10 3 6
-9 10 -18 7 -21 -3 -2 17 -4 44 -3 38 1 48 -2 44 -13 -3 -7 -9 -10 -12 -5 -10
15 -56 9 -53 -7 3 -12 0 -11 -15 1 -10 9 -25 14 -33 11 -13 -4 -13 -3 -2 10
10 13 10 18 1 24 -8 4 -9 3 -5 -4 6 -11 -13 -17 -37 -13 -5 1 -6 -3 -2 -9 3
-6 12 -7 18 -4 7 4 9 4 5 -1 -9 -10 -118 -13 -124 -3 -2 4 -13 5 -24 3 -12 -2
-18 0 -15 6 9 13 -9 11 -24 -3 -10 -9 -12 -9 -7 -1 3 6 2 15 -4 18 -8 5 -8 11
-1 19 8 9 7 13 -4 13 -8 0 -12 -4 -9 -8z m4 -29 c0 -5 -5 -10 -11 -10 -5 0 -7
5 -4 10 3 6 8 10 11 10 2 0 4 -4 4 -10z m374 -15 c-4 -8 -8 -15 -10 -15 -2 0
-4 7 -4 15 0 8 4 15 10 15 5 0 7 -7 4 -15z m-184 -31 c0 -8 -19 -13 -24 -6 -3
5 1 9 9 9 8 0 15 -2 15 -3z m-473 -49 c4 -4 3 -5 -4 -1 -6 3 -14 2 -18 -4 -4
-6 -11 -7 -17 -4 -7 5 -9 1 -5 -9 4 -12 2 -14 -10 -10 -12 5 -14 3 -8 -7 5 -8
4 -11 -3 -7 -5 4 -8 16 -5 27 3 11 9 18 13 15 5 -3 11 -1 14 4 7 11 32 9 43
-4z m268 -127 c-1 -24 -1 -37 2 -31 3 9 10 10 24 3 10 -6 19 -8 19 -4 0 4 10
-1 23 -12 l22 -19 -19 23 c-11 12 -15 22 -9 22 13 0 44 -35 38 -43 -3 -4 1 -3
7 3 19 16 26 12 23 -15 -2 -24 -1 -25 19 -12 14 9 28 11 41 5 18 -7 17 -8 -4
-4 l-23 5 21 -20 c25 -24 28 -37 4 -18 -16 13 -17 12 -4 -3 11 -15 11 -21 0
-35 -13 -17 -12 -17 5 -3 23 18 54 24 37 7 -14 -14 -14 -47 0 -47 5 0 7 -5 3
-11 -4 -8 -11 -3 -20 12 -13 24 -13 24 -11 2 1 -13 5 -23 9 -23 4 0 8 -6 8
-14 0 -8 6 -17 13 -19 7 -4 6 -6 -5 -6 -9 -1 -19 5 -22 12 -3 6 -3 -3 0 -21 2
-17 1 -31 -3 -30 -5 2 -9 -1 -10 -7 -1 -5 5 -9 13 -7 24 5 16 -7 -16 -23 -16
-9 -30 -12 -30 -9 0 4 -8 0 -18 -9 -10 -10 -23 -14 -27 -10 -5 5 -3 -1 5 -11
13 -18 13 -19 -1 -14 -13 5 -16 2 -12 -15 5 -22 5 -22 -11 -2 -11 13 -14 15
-11 4 4 -10 0 -16 -10 -16 -8 0 -15 4 -15 9 0 4 -5 8 -11 8 -8 0 -9 -4 0 -13
6 -8 7 -18 3 -23 -4 -4 1 -2 11 5 12 10 17 10 17 2 0 -7 4 -9 10 -6 6 3 7 -1
3 -10 -5 -13 -7 -14 -14 -3 -7 11 -11 10 -19 -2 -9 -13 -10 -13 -10 0 0 10 -3
11 -8 4 -4 -6 -15 -10 -24 -8 -10 1 -18 -2 -18 -7 0 -6 -5 -7 -11 -3 -8 4 -7
9 2 15 7 4 17 5 21 3 4 -3 5 2 1 11 -5 13 -7 14 -14 3 -6 -10 -12 -9 -24 7
-16 20 -16 19 -5 -2 7 -16 7 -23 0 -23 -5 0 -10 5 -10 10 0 6 -5 10 -11 10 -5
0 -8 -4 -5 -8 3 -5 -1 -9 -9 -9 -15 0 -12 10 14 42 16 20 15 20 -5 2 -11 -9
-24 -14 -29 -10 -4 5 -6 3 -2 -2 3 -6 2 -17 -4 -25 -6 -11 -8 -6 -5 17 3 28 1
31 -18 24 -25 -9 -49 -3 -40 10 3 5 -3 9 -13 9 -15 0 -16 2 -3 10 12 8 12 10
1 10 -11 0 -11 3 0 18 11 14 11 15 -1 5 -22 -20 -28 -16 -22 15 4 26 4 27 -13
7 -16 -19 -16 -19 -1 7 14 24 14 29 1 42 -16 15 -20 31 -7 22 4 -2 14 0 22 6
12 8 12 9 -3 4 -11 -3 -20 0 -23 9 -4 8 -10 12 -15 9 -5 -3 -9 0 -9 5 0 14 17
14 25 1 3 -5 11 -10 16 -10 6 0 8 4 5 9 -4 5 -3 11 1 14 5 2 3 3 -3 1 -6 -1
-17 2 -25 7 -11 7 -9 9 8 9 15 0 21 6 20 19 0 11 -4 18 -8 15 -4 -2 -11 0 -14
6 -4 6 -3 10 2 9 20 -3 23 3 12 24 -11 20 -11 21 5 8 15 -13 16 -11 12 20 -3
19 -3 28 0 22 3 -7 10 -13 15 -13 6 0 8 4 4 9 -10 18 13 21 26 4 8 -9 9 -14 4
-11 -6 4 -18 0 -28 -7 -15 -11 -15 -13 -2 -18 8 -4 14 -1 12 5 -1 7 5 12 13
13 20 0 20 27 0 43 -12 10 -10 10 12 1 15 -7 25 -17 21 -23 -3 -6 -2 -8 2 -3
5 4 10 16 12 27 2 14 -2 18 -15 14 -14 -5 -14 -4 -3 4 9 7 21 7 32 2 23 -13
44 11 26 29 -10 11 -8 11 10 2 17 -9 25 -8 35 4 7 8 14 14 15 15 1 0 0 -19 -2
-42z m22 15 c-3 -5 1 -14 9 -21 8 -7 14 -8 14 -3 0 6 11 10 24 9 14 -1 22 -6
20 -10 -3 -5 2 -11 10 -14 9 -3 16 -11 16 -17 0 -6 -11 0 -25 13 -19 18 -27
21 -39 11 -11 -9 -17 -8 -30 4 -14 15 -14 35 0 35 3 0 3 -3 1 -7z m133 -79 c0
-8 -5 -12 -10 -9 -6 4 -8 11 -5 16 9 14 15 11 15 -7z m-365 -102 c-3 -3 -11 0
-18 7 -9 10 -8 11 6 5 10 -3 15 -9 12 -12z m-231 -60 c3 -5 -1 -9 -9 -9 -8 0
-12 4 -9 9 3 4 7 8 9 8 2 0 6 -4 9 -8z m664 -67 c-3 -3 -9 2 -12 12 -6 14 -5
15 5 6 7 -7 10 -15 7 -18z m-41 -66 c-9 -6 -15 -14 -13 -18 3 -5 -6 -6 -20 -3
-19 3 -22 7 -13 18 6 7 16 11 24 8 7 -3 16 0 20 6 4 6 10 8 13 5 4 -4 -1 -11
-11 -16z m-27 -33 c0 -3 -4 -8 -10 -11 -5 -3 -10 -1 -10 4 0 6 5 11 10 11 6 0
10 -2 10 -4z m-33 -28 c-3 -8 -6 -5 -6 6 -1 11 2 17 5 13 3 -3 4 -12 1 -19z
m-157 -44 c0 -8 -19 -13 -24 -6 -3 5 1 9 9 9 8 0 15 -2 15 -3z m-235 -84 c-3
-5 -12 -10 -18 -10 -7 0 -6 4 3 10 19 12 23 12 15 0z m75 -70 c-13 -8 -13 -10
-1 -10 8 0 12 -3 8 -6 -3 -3 -11 -3 -17 1 -8 5 -8 11 1 21 6 8 14 12 18 9 3
-3 -1 -10 -9 -15z m630 -170 c0 -5 -5 -10 -11 -10 -5 0 -7 5 -4 10 3 6 8 10
11 10 2 0 4 -4 4 -10z m-37 -70 c-10 -11 -19 -20 -21 -20 -1 0 2 9 8 20 6 11
15 20 20 20 6 0 2 -9 -7 -20z m47 11 c0 -6 -4 -13 -10 -16 -5 -3 -10 1 -10 9
0 9 5 16 10 16 6 0 10 -4 10 -9z m-509 -138 c13 -16 12 -17 -3 -4 -17 13 -22
21 -14 21 2 0 10 -8 17 -17z"/>
<path d="M1412 1164 c-12 -8 -22 -21 -21 -27 0 -9 2 -8 6 1 2 6 8 10 12 7 5
-2 16 2 26 9 26 19 3 28 -23 10z"/>
<path d="M1275 1049 c-4 -6 -5 -12 -2 -15 2 -3 7 2 10 11 7 17 1 20 -8 4z"/>
<path d="M1270 860 c0 -5 5 -10 11 -10 5 0 7 5 4 10 -3 6 -8 10 -11 10 -2 0
-4 -4 -4 -10z"/>
<path d="M1311 811 c-10 -7 -11 -13 -2 -27 6 -11 11 -17 12 -14 2 7 7 50 5 50
0 0 -7 -4 -15 -9z"/>
<path d="M1470 740 c0 -5 5 -10 10 -10 6 0 10 5 10 10 0 6 -4 10 -10 10 -5 0
-10 -4 -10 -10z"/>
<path d="M263 1395 c0 -8 4 -12 9 -9 5 3 6 10 3 15 -9 13 -12 11 -12 -6z"/>
<path d="M1490 1399 c0 -5 5 -7 10 -4 6 3 10 8 10 11 0 2 -4 4 -10 4 -5 0 -10
-5 -10 -11z"/>
<path d="M1525 1401 c-3 -5 -1 -12 5 -16 5 -3 10 -3 10 1 0 3 6 1 13 -5 14
-11 27 -5 27 13 0 6 -4 4 -10 -4 -8 -12 -10 -12 -16 3 -7 19 -20 22 -29 8z"/>
<path d="M1885 1399 c-4 -6 -5 -12 -2 -15 2 -3 7 2 10 11 7 17 1 20 -8 4z"/>
<path d="M1256 1381 c9 -9 34 -9 34 -1 0 5 -9 8 -20 7 -10 -1 -17 -3 -14 -6z"/>
<path d="M1590 1378 c0 -4 4 -8 9 -8 6 0 12 4 15 8 3 5 -1 9 -9 9 -8 0 -15 -4
-15 -9z"/>
<path d="M728 1311 c9 -10 24 -15 32 -12 12 4 12 6 -3 9 -9 2 -15 7 -13 11 3
4 -4 7 -14 8 -18 2 -18 1 -2 -16z"/>
<path d="M816 1253 c-6 -14 -5 -15 5 -6 7 7 10 15 7 18 -3 3 -9 -2 -12 -12z"/>
<path d="M845 1180 c4 -6 11 -8 16 -5 14 9 11 15 -7 15 -8 0 -12 -5 -9 -10z"/>
<path d="M1030 1182 c0 -5 7 -9 15 -9 8 0 12 4 9 9 -3 4 -9 8 -15 8 -5 0 -9
-4 -9 -8z"/>
<path d="M915 1038 c3 -12 10 -26 16 -32 9 -8 9 -6 2 9 -6 11 -8 26 -6 33 3 6
0 12 -6 12 -5 0 -8 -10 -6 -22z"/>
<path d="M985 800 c-4 -6 1 -7 12 -3 16 6 17 5 3 -13 -14 -18 -14 -18 2 -5 10
7 15 17 12 22 -7 12 -21 11 -29 -1z"/>
<path d="M1045 709 c-4 -6 -4 -13 -1 -16 3 -4 6 0 6 7 0 9 5 7 16 -6 14 -18
15 -18 4 4 -12 25 -16 27 -25 11z"/>
<path d="M343 514 c-9 -9 -10 -15 -2 -20 14 -8 30 8 21 22 -5 9 -10 8 -19 -2z"/>
<path d="M595 500 c6 -30 16 -40 12 -12 -2 12 -6 24 -10 28 -3 4 -4 -4 -2 -16z"/>
<path d="M1469 498 c0 -2 -2 -14 -3 -27 -3 -21 -1 -22 9 -8 7 9 15 14 19 10 4
-4 4 0 0 10 -5 14 -22 24 -25 15z"/>
<path d="M180 479 c0 -5 5 -7 10 -4 6 3 10 8 10 11 0 2 -4 4 -10 4 -5 0 -10
-5 -10 -11z"/>
<path d="M1525 480 c3 -5 8 -10 11 -10 2 0 4 5 4 10 0 6 -5 10 -11 10 -5 0 -7
-4 -4 -10z"/>
<path d="M388 463 c6 -2 18 -2 25 0 6 3 1 5 -13 5 -14 0 -19 -2 -12 -5z"/>
<path d="M515 460 c3 -5 8 -10 11 -10 2 0 4 5 4 10 0 6 -5 10 -11 10 -5 0 -7
-4 -4 -10z"/>
<path d="M1636 410 c14 -25 14 -42 -2 -36 -8 3 -13 2 -10 -3 3 -5 -1 -14 -10
-22 -8 -7 -20 -22 -26 -33 -11 -20 -10 -20 9 -3 11 9 23 14 27 10 4 -4 4 0 1
9 -4 11 1 20 13 27 22 12 23 34 2 54 -10 10 -11 9 -4 -3z"/>
<path d="M1420 240 c0 -5 -5 -9 -11 -7 -6 1 -14 -4 -16 -10 -7 -20 12 -15 32
7 10 11 13 20 7 20 -7 0 -12 -4 -12 -10z"/>
</g>
</svg>
