<?xml version="1.0" standalone="no"?>
<!DOCTYPE svg PUBLIC "-//W3C//DTD SVG 20010904//EN"
 "http://www.w3.org/TR/2001/REC-SVG-20010904/DTD/svg10.dtd">
<svg version="1.0" xmlns="http://www.w3.org/2000/svg"
 width="758.000000pt" height="1280.000000pt" viewBox="0 0 758.000000 1280.000000"
 preserveAspectRatio="xMidYMid meet">
<metadata>
Created by potrace 1.15, written by Peter Selinger 2001-2017
</metadata>
<g transform="translate(0.000000,1280.000000) scale(0.100000,-0.100000)"
fill="#000000" stroke="none">
<path d="M5429 12789 c-8 -5 -28 -9 -46 -9 -112 0 -355 -95 -526 -206 -37 -24
-73 -42 -78 -38 -5 3 -8 0 -7 -6 2 -6 -14 -17 -35 -24 -70 -25 -205 -146 -350
-316 -50 -58 -95 -105 -101 -105 -33 0 -196 28 -226 38 -70 24 -1037 3 -1267
-27 -24 -3 -43 -2 -43 2 0 13 94 60 135 66 61 10 71 19 57 50 -11 24 -16 26
-77 26 -65 0 -145 -13 -175 -29 -19 -10 -59 -18 -130 -27 -30 -3 -57 -7 -60
-9 -7 -5 -214 -28 -350 -40 -133 -12 -175 -22 -610 -152 -63 -19 -120 -36
-127 -38 -7 -2 -38 33 -69 78 -112 161 -272 289 -438 351 -120 45 -411 106
-508 106 l-49 0 -23 -50 c-13 -27 -28 -56 -35 -64 -6 -7 -11 -18 -9 -22 4 -15
-25 -109 -36 -116 -17 -11 -9 -453 10 -545 18 -90 53 -187 88 -246 l25 -41
-67 -66 c-126 -122 -220 -306 -282 -554 -42 -163 -16 -317 83 -511 112 -216
335 -377 756 -545 194 -77 462 -136 881 -195 186 -26 240 -37 235 -46 -3 -4 4
-35 15 -69 19 -55 20 -88 23 -398 2 -385 -4 -453 -79 -862 -25 -135 -48 -261
-51 -280 -3 -19 -19 -82 -35 -140 -17 -58 -34 -143 -38 -190 -4 -47 -15 -103
-25 -125 -19 -43 -104 -282 -165 -460 -20 -60 -67 -180 -104 -265 -70 -160
-148 -377 -217 -605 -22 -71 -54 -170 -70 -220 -64 -187 -96 -342 -123 -585
-23 -208 -39 -597 -32 -780 10 -259 14 -305 36 -474 48 -370 121 -638 226
-832 20 -38 47 -87 59 -110 25 -47 38 -66 114 -167 78 -104 189 -222 278 -297
42 -36 92 -80 111 -99 28 -29 42 -34 100 -41 88 -9 247 3 296 24 37 16 38 17
32 54 -18 98 -18 112 -2 137 36 55 113 68 162 27 36 -30 45 -59 43 -133 -2
-52 2 -73 12 -80 21 -14 950 -3 959 11 4 7 10 38 13 70 9 84 33 136 73 161 87
54 131 -41 78 -169 -16 -40 -5 -47 57 -39 53 7 133 61 210 141 l62 64 56 -27
c53 -24 66 -26 238 -29 213 -4 236 0 507 88 125 41 202 72 242 98 87 57 303
294 304 334 0 9 5 20 10 23 28 17 98 197 136 347 13 53 33 173 44 267 22 192
42 284 99 453 90 268 219 439 438 582 89 58 158 126 178 173 19 44 19 97 1
112 -23 19 -101 24 -190 11 -233 -33 -435 -214 -550 -493 -45 -108 -136 -398
-231 -732 -81 -285 -125 -396 -193 -481 -101 -128 -371 -284 -672 -389 -92
-32 -190 -54 -190 -41 0 3 22 47 49 98 140 262 227 550 280 923 65 457 45
1088 -49 1562 -69 351 -75 374 -195 783 -103 348 -143 501 -228 875 -76 328
-143 690 -166 890 -21 183 -32 501 -21 613 32 325 129 772 168 772 8 0 16 8
19 18 3 15 31 24 141 46 407 82 602 157 947 364 348 209 477 321 579 505 74
132 102 253 93 394 -6 93 -47 256 -68 269 -5 3 -9 21 -9 40 0 27 -4 34 -19 34
-20 0 -39 25 -61 80 -43 108 -123 213 -208 272 l-43 29 29 37 c86 108 196 398
228 602 24 145 24 323 0 430 -10 47 -24 90 -30 96 -14 14 -208 25 -227 13z
m-12 -561 c4 -7 8 -40 8 -73 1 -33 4 -65 8 -71 11 -18 -26 -141 -106 -361 -13
-36 -38 -43 -72 -20 -11 7 -36 19 -55 26 -19 7 -71 28 -115 46 -93 38 -242 85
-272 85 -15 0 -22 8 -27 30 -5 27 0 37 42 78 48 48 194 142 221 142 7 0 19 6
25 13 14 18 99 53 211 87 104 32 121 35 132 18z m-4718 -154 c131 -63 275
-172 310 -235 13 -22 21 -42 20 -43 -30 -24 -309 -156 -321 -152 -12 3 -18 -2
-18 -14 0 -11 -29 -37 -77 -68 l-78 -52 -22 51 c-20 44 -23 68 -23 173 1 161
12 241 45 315 25 55 31 61 58 61 16 0 64 -16 106 -36z m2878 -772 c88 -63 107
-237 36 -331 -28 -36 -93 -70 -133 -71 -143 -1 -242 151 -185 286 17 42 77
114 108 131 36 19 138 11 174 -15z m-1451 -46 c41 8 92 -29 123 -90 50 -97 27
-242 -46 -294 -53 -37 -95 -46 -149 -33 -66 16 -90 34 -125 89 -24 37 -29 57
-29 104 0 64 14 99 64 162 35 43 104 80 122 65 6 -5 24 -6 40 -3z m805 -412
c91 -27 181 -111 195 -184 5 -21 -1 -45 -20 -84 -42 -86 -123 -141 -223 -152
-91 -10 -93 -13 -93 -99 0 -162 71 -265 183 -265 49 0 68 16 131 113 56 87 69
71 20 -26 -33 -65 -70 -116 -92 -128 -13 -7 -48 -13 -78 -12 -69 2 -113 28
-156 95 -29 44 -34 48 -43 32 -26 -46 -90 -104 -132 -120 -43 -17 -47 -17
-112 4 -76 25 -98 51 -81 97 12 32 30 32 30 1 0 -30 14 -41 76 -56 126 -32
184 43 199 257 l6 91 -76 17 c-52 12 -89 27 -117 49 -68 52 -83 78 -83 151 0
80 17 105 110 162 109 68 245 90 356 57z m944 -53 c-7 -13 21 -27 70 -36 47
-9 145 -56 164 -79 17 -21 8 -20 -37 3 -99 50 -256 71 -380 52 -76 -12 -170
-53 -229 -100 -38 -30 -87 -103 -97 -143 -3 -15 -17 -40 -31 -55 l-24 -28 -1
25 c0 41 54 141 109 202 87 95 172 132 324 142 48 3 95 10 105 15 22 13 35 14
27 2z m-1920 -273 c80 -26 134 -59 178 -107 35 -39 49 -81 26 -81 -6 0 -31 21
-57 48 -59 60 -133 99 -219 117 -86 19 -213 19 -283 1 -30 -7 -73 -17 -95 -21
-56 -9 -172 -67 -222 -110 -24 -20 -43 -32 -43 -27 0 12 70 70 140 114 53 34
198 81 280 91 70 9 235 -5 295 -25z m1953 -44 c70 -14 81 -20 125 -64 50 -50
67 -93 20 -48 -38 35 -58 44 -137 62 -128 30 -279 15 -398 -41 -40 -18 -58
-32 -58 -45 0 -31 -82 -54 -88 -25 -6 31 70 91 161 127 127 52 240 62 375 34z
m-1990 -138 c72 -7 169 -50 220 -99 59 -57 31 -65 -50 -14 -84 53 -143 72
-224 71 -181 -3 -357 -91 -450 -224 -23 -33 -24 -34 -24 -9 0 17 20 45 65 91
71 72 176 134 278 163 31 9 57 20 57 25 0 5 15 7 33 5 17 -2 60 -7 95 -9z
m1872 -147 c160 -76 231 -164 234 -287 1 -70 -9 -122 -23 -122 -4 0 -10 40
-13 88 -3 51 -12 100 -21 119 -21 40 -102 112 -158 140 -112 56 -267 68 -352
27 -29 -14 -40 -15 -49 -6 -10 10 -8 17 7 32 37 37 93 50 200 47 91 -2 106 -5
175 -38z m-1714 -105 c19 -9 48 -32 64 -51 25 -28 29 -38 19 -49 -10 -13 -17
-10 -43 15 -36 35 -93 61 -134 61 -16 0 -58 -14 -93 -32 -114 -56 -232 -199
-274 -331 l-13 -42 -1 37 c-2 74 54 175 157 283 105 110 228 152 318 109z"/>
<path d="M3438 11231 c-18 -9 -46 -37 -61 -63 -36 -58 -31 -105 14 -151 27
-26 35 -29 79 -25 61 6 97 29 117 76 20 47 6 96 -39 138 -42 40 -69 46 -110
25z"/>
<path d="M2070 11168 c-35 -13 -59 -37 -82 -82 -24 -47 -18 -93 17 -133 20
-25 30 -28 79 -27 68 0 105 24 124 79 16 49 3 90 -41 132 -37 35 -63 44 -97
31z"/>
<path d="M2735 10810 c-22 -5 -52 -13 -66 -19 -15 -5 -36 -7 -47 -4 -45 11
-123 -144 -91 -183 6 -7 9 -19 6 -26 -2 -7 0 -21 5 -31 31 -60 310 -97 400
-53 90 44 148 141 111 187 -68 83 -95 98 -181 99 -25 0 -35 5 -39 20 -6 22
-28 24 -98 10z m178 -82 c20 -23 14 -57 -12 -73 -53 -33 -108 -21 -126 29 -8
25 -6 31 19 53 24 20 36 23 65 18 20 -3 44 -15 54 -27z"/>
</g>
</svg>
