<svg xmlns="http://www.w3.org/2000/svg" data-name="Layer 102" viewBox="0 0 100 125" x="0px" y="0px"><title>Box Open</title><path d="M95.4,27.36,61.59,14.51a1,1,0,0,0-1.09.26L50,26.24,39.58,14.77a1,1,0,0,0-1.09-.26L4.68,27.36a1,1,0,0,0-.62.72,1,1,0,0,0,.27.92L15,39.63,4.3,50.29a1,1,0,0,0-.27.92,1,1,0,0,0,.62.72L15.36,56V72.67a1,1,0,0,0,.66.94L49.71,85.5h0a.91.91,0,0,0,.32.06.87.87,0,0,0,.32-.06h0L84.06,73.61a1,1,0,0,0,.67-.94V56l10.64-4a1,1,0,0,0,.62-.72,1,1,0,0,0-.27-.92L85.09,39.66,95.75,29a1,1,0,0,0-.35-1.64ZM6.84,28.68,38.56,16.62l9.76,10.69h0L16.65,38.49h0ZM49,29.19,49,50.1l-23.9-8.44-5.7-2ZM15.36,53.86,6.8,50.61l8.56-8.55,1-1,.26-.26.74.26L48.29,52,38.53,62.67,17.36,54.62l-1-.38ZM49,83.14,17.36,72V56.76l21.1,8a.84.84,0,0,0,.35.07,1,1,0,0,0,.74-.33L49,54.12Zm2-54L80.67,39.64,51,50.12ZM82.73,72,51,83.14v-29l9.43,10.34a1,1,0,0,0,.74.33.84.84,0,0,0,.35-.07l21.17-8ZM93.22,50.61l-8.49,3.23-1,.38-1,.38L61.49,62.67,51.75,52h0L83.4,40.8h0l.31.31,1,1ZM83.44,38.48h0L51.77,27.31h0l9.74-10.68L93.25,28.68Z" fill="#f24d7f"/><path d="M33.53,73.31a1,1,0,1,0-.66,1.88l13.05,4.63a.92.92,0,0,0,.33.06,1,1,0,0,0,.58-.19,1,1,0,0,0,.42-.81V68.63a1,1,0,0,0-2,0v8.83l-10.7-3.79Z" fill="#2a2966"/><path d="M67.16,37.55,54,33.05a1,1,0,0,0-.91.14,1,1,0,0,0-.41.81v7.5a1,1,0,0,0,2,0V35.4L65,38.92l1.53.53a1,1,0,0,0,.65-1.9Z" fill="#2a2966"/></svg>