<svg xmlns="http://www.w3.org/2000/svg" xmlns:xlink="http://www.w3.org/1999/xlink" version="1.1" x="0px" y="0px" viewBox="0 0 100 125" enable-background="new 0 0 100 100" xml:space="preserve"><path d="M94.504,43.188c0.513-1.214-3.223-2.038-3.223-2.038c-2.278-2.291-6.643-2.462-6.643-2.462l-2.123-3.547l-0.618,5.039  l-3.476-4.446c0,0-1.065,7.178-1.212,11.363c-0.147,4.186-9.802,2.453-9.802,2.453c-15.299-9.261-37.787-6.28-37.787-6.28  c-6.215-3.231-9.983-6.35-12.284-9.362c-0.357-0.498-0.691-0.983-1.009-1.458c-8.84-13.206-3.578-18.527-1.18-20.101  c0.302-0.263,0.637-0.438,0.996-0.548c2.562-0.77,6.341,1.934,8.098,2.301c7.244,1.519,4.554-4.039,3.344-4.889  c-7.744-5.428-11.766-4.01-14.765-1.811c-15.751,11.56-3.801,26.978,2.011,32.775c1.719,1.713,7.462,6.213,7.462,6.213  c-4.026,10.471,1.265,22.451,1.265,22.451c-1.187,10.68,0.136,17.108,2.46,20.223c0.388,1.144,0.613,1.914,0.613,1.914  c0.078,0.588,0.654,0.904,1.434,1.058c0.113,0.081,0.298,0.089,0.535,0.077c0.413,0.044,0.855,0.055,1.303,0.042  c0.01,0.002,0.021,0.003,0.033,0.004c1.329,0.259,2.605,1.341,2.839,0.137c0.026-0.146,0.039-0.29,0.037-0.434  c0.263-0.044,0.421-0.075,0.421-0.075c0.567-2.656-2.817-2.859-2.817-2.859c-1.431-0.788-2.402-10.222-2.402-10.222  s6.541-2.67,9.919-10.845c0.72,0.089,9.27,0.406,9.27,0.406c11.507,4.519-0.423,12.372,3.617,16.708  c2.105,2.262,3.79,2.278,4.92,1.78c1.026,0.3,1.9,0.722,2.018-0.244c0.133-1.096-0.635-2.109-1.766-2.422  c-2.008-3.385,1.779-9.591,1.779-9.591c1.924-3.784,5.168-1.925,5.168-1.925c3.853,7.989,10.988,15.685,14.507,19.214  c0,0-0.79,3.544,6.938,2.605c0.883-1.5,0.724-2.134,0.193-2.352l0.003-0.001c-0.86-1.614-4.063-4.573-4.963-3.997  c-0.814-1.491-1.994-3.692-3.082-5.736c-0.389-1.079-1.46-4.659-0.143-8.516c1.545-2.828,1.723-5.751,1.723-5.751  C85.567,50.5,91.526,49.586,91.526,49.586C97.329,48.469,93.989,44.404,94.504,43.188z" fill="#15b756"/></svg>