<svg xmlns:dc="http://purl.org/dc/elements/1.1/" xmlns:cc="http://creativecommons.org/ns#" xmlns:rdf="http://www.w3.org/1999/02/22-rdf-syntax-ns#" xmlns:svg="http://www.w3.org/2000/svg" xmlns="http://www.w3.org/2000/svg" xmlns:sodipodi="http://sodipodi.sourceforge.net/DTD/sodipodi-0.dtd" xmlns:inkscape="http://www.inkscape.org/namespaces/inkscape" version="1.1" x="0px" y="0px" viewBox="0 0 100 125"><g transform="translate(0,-952.36218)"><path style="color:#000000; enable-background:accumulate;" d="m 49.803505,960.3671 c -0.4113,0.035 -0.8104,0.2015 -1.125,0.4688 l -42.0000001,36 c -0.7936,0.6871 -0.8748,2.0189 -0.1875,2.8124 0.6872,0.7936 2.0189,0.906 2.8125,0.2188 l 40.6875001,-34.875 40.687495,34.875 c 0.7936,0.6872 2.1566,0.5748 2.8437,-0.2188 0.6874,-0.7935 0.5749,-2.1253 -0.2187,-2.8124 l -41.999995,-36 c -0.4094,-0.3496 -0.9644,-0.523 -1.5,-0.4688 z m 17.1875,4 0,7.25 8,6.875 0,-14.125 z m -17,4 -32,27 0,48.9999 64,0 0,-48.9999 z m -20,28 18,0 0,17.9999 -18,0 z m 22,0 18,0 0,17.9999 -18,0 z m -22,21.9999 18,0 0,18 -18,0 z m 22,0 18,0 0,18 -18,0 z" fill="#15b756" marker="none" visibility="visible" display="inline" overflow="visible"/></g></svg>